<?xml version="1.0" encoding="UTF-8"?>
<svg width="200px" height="200px" viewBox="0 0 200 200" xmlns="http://www.w3.org/2000/svg">
  <defs>
    <linearGradient id="gradientBg2" x1="0%" y1="0%" x2="100%" y2="100%">
      <stop offset="0%" stop-color="#1F3A68" />
      <stop offset="100%" stop-color="#0E1E37" />
    </linearGradient>
    <linearGradient id="gradientFace2" x1="0%" y1="0%" x2="100%" y2="100%">
      <stop offset="0%" stop-color="#6D4C41" />
      <stop offset="100%" stop-color="#3E2723" />
    </linearGradient>
    <linearGradient id="glowEffect2" x1="0%" y1="0%" x2="100%" y2="100%">
      <stop offset="0%" stop-color="#00C9FF" stop-opacity="0.6" />
      <stop offset="100%" stop-color="#006DDF" stop-opacity="0.6" />
    </linearGradient>
    <radialGradient id="haloGradient" cx="50%" cy="50%" r="50%" fx="50%" fy="50%">
      <stop offset="0%" stop-color="#00C9FF" stop-opacity="0.3" />
      <stop offset="100%" stop-color="#00C9FF" stop-opacity="0" />
    </radialGradient>
  </defs>
  
  <!-- Background Circle -->
  <circle cx="100" cy="100" r="98" fill="url(#gradientBg2)" stroke="#00C9FF" stroke-width="2" />
  
  <!-- Digital Halo -->
  <circle cx="100" cy="100" r="92" fill="url(#haloGradient)" />
  
  <!-- Tech Circuit Pattern -->
  <path d="M40,100 L60,100 M70,80 L90,80 M110,80 L130,80 M140,100 L160,100 M70,120 L90,120 M110,120 L130,120" 
        stroke="#00C9FF" stroke-width="1.5" stroke-linecap="round" fill="none" opacity="0.7" />
  <path d="M60,100 C60,85 70,80 90,80 L110,80 C130,80 140,85 140,100 C140,115 130,120 110,120 L90,120 C70,120 60,115 60,100" 
        stroke="#00C9FF" stroke-width="1.5" fill="none" opacity="0.5" />
  
  <!-- Glow effect -->
  <circle cx="100" cy="100" r="85" fill="url(#glowEffect2)" opacity="0.15" />
  
  <!-- Avatar Silhouette - More feminine design -->
  <path d="M100,55 C85,55 75,70 75,85 C75,100 85,110 100,110 C115,110 125,100 125,85 C125,70 115,55 100,55 Z" 
        fill="url(#gradientFace2)" />
  <path d="M65,145 C65,120 80,115 100,115 C120,115 135,120 135,145" 
        stroke="#00C9FF" stroke-width="2" stroke-linecap="round" fill="none" />
  
  <!-- Digital Embellishments -->
  <circle cx="82" cy="85" r="2" fill="#00C9FF" opacity="0.9" />
  <circle cx="118" cy="85" r="2" fill="#00C9FF" opacity="0.9" />
  
  <!-- Tech Dots & Lines -->
  <circle cx="75" cy="165" r="3" fill="#00C9FF" />
  <circle cx="100" cy="170" r="3" fill="#00C9FF" />
  <circle cx="125" cy="165" r="3" fill="#00C9FF" />
  <path d="M75,165 L100,170 L125,165" stroke="#00C9FF" stroke-width="1.5" fill="none" />
  
  <!-- Digital Data Flow -->
  <path d="M50,50 L80,30 M120,30 L150,50" stroke="#00C9FF" stroke-width="1" stroke-dasharray="4,3" opacity="0.6" />
  <circle cx="80" cy="30" r="1.5" fill="#00C9FF" />
  <circle cx="120" cy="30" r="1.5" fill="#00C9FF" />
  
  <!-- Digital Sparkle Effects -->
  <circle cx="100" cy="40" r="1" fill="#FFFFFF" opacity="0.8" />
  <circle cx="50" cy="100" r="1" fill="#FFFFFF" opacity="0.8" />
  <circle cx="150" cy="100" r="1" fill="#FFFFFF" opacity="0.8" />
  <circle cx="75" cy="150" r="1" fill="#FFFFFF" opacity="0.8" />
  <circle cx="125" cy="150" r="1" fill="#FFFFFF" opacity="0.8" />
</svg>