<?xml version="1.0" encoding="UTF-8"?>
<svg width="200px" height="200px" viewBox="0 0 200 200" xmlns="http://www.w3.org/2000/svg">
  <defs>
    <linearGradient id="gradientBg" x1="0%" y1="0%" x2="100%" y2="100%">
      <stop offset="0%" stop-color="#2C3E50" />
      <stop offset="100%" stop-color="#1A2533" />
    </linearGradient>
    <linearGradient id="gradientFace" x1="0%" y1="0%" x2="100%" y2="100%">
      <stop offset="0%" stop-color="#7F5A83" />
      <stop offset="100%" stop-color="#0D324D" />
    </linearGradient>
    <linearGradient id="glowEffect" x1="0%" y1="0%" x2="100%" y2="100%">
      <stop offset="0%" stop-color="#7857FF" stop-opacity="0.6" />
      <stop offset="100%" stop-color="#2E86C1" stop-opacity="0.6" />
    </linearGradient>
  </defs>
  
  <!-- Background Circle -->
  <circle cx="100" cy="100" r="98" fill="url(#gradientBg)" stroke="#7857FF" stroke-width="2" />
  
  <!-- Tech Circuit Pattern -->
  <path d="M30,100 L50,100 M60,70 L80,70 M120,70 L140,70 M150,100 L170,100 M60,130 L80,130 M120,130 L140,130" 
        stroke="#7857FF" stroke-width="1.5" stroke-linecap="round" fill="none" opacity="0.7" />
  <path d="M50,100 C50,85 60,70 80,70 L120,70 C140,70 150,85 150,100 C150,115 140,130 120,130 L80,130 C60,130 50,115 50,100" 
        stroke="#7857FF" stroke-width="1.5" fill="none" opacity="0.5" />
  
  <!-- Glow effect -->
  <circle cx="100" cy="100" r="85" fill="url(#glowEffect)" opacity="0.15" />
  
  <!-- Avatar Silhouette -->
  <path d="M100,55 C85,55 75,70 75,85 C75,100 85,110 100,110 C115,110 125,100 125,85 C125,70 115,55 100,55 Z" 
        fill="url(#gradientFace)" />
  <path d="M65,145 C65,120 80,115 100,115 C120,115 135,120 135,145" 
        stroke="#7857FF" stroke-width="2" stroke-linecap="round" fill="none" />
  
  <!-- Tech Dots -->
  <circle cx="75" cy="165" r="3" fill="#7857FF" />
  <circle cx="100" cy="170" r="3" fill="#7857FF" />
  <circle cx="125" cy="165" r="3" fill="#7857FF" />
  
  <!-- Tech Lines -->
  <path d="M75,165 L100,170 L125,165" stroke="#7857FF" stroke-width="1.5" fill="none" />
  
  <!-- Digital Sparkle Effects -->
  <circle cx="65" cy="85" r="1.5" fill="#FFFFFF" opacity="0.8" />
  <circle cx="135" cy="85" r="1.5" fill="#FFFFFF" opacity="0.8" />
  <circle cx="100" cy="40" r="1" fill="#FFFFFF" opacity="0.6" />
  <circle cx="50" cy="100" r="1" fill="#FFFFFF" opacity="0.6" />
  <circle cx="150" cy="100" r="1" fill="#FFFFFF" opacity="0.6" />
</svg>