<?xml version="1.0" encoding="UTF-8"?>
<svg width="200px" height="200px" viewBox="0 0 200 200" xmlns="http://www.w3.org/2000/svg">
  <defs>
    <linearGradient id="gradientBg3" x1="0%" y1="0%" x2="100%" y2="100%">
      <stop offset="0%" stop-color="#282D4F" />
      <stop offset="100%" stop-color="#121420" />
    </linearGradient>
    <linearGradient id="gradientFace3" x1="0%" y1="0%" x2="100%" y2="100%">
      <stop offset="0%" stop-color="#4E342E" />
      <stop offset="100%" stop-color="#3E2723" />
    </linearGradient>
    <linearGradient id="glowEffect3" x1="0%" y1="0%" x2="100%" y2="100%">
      <stop offset="0%" stop-color="#FF5252" stop-opacity="0.6" />
      <stop offset="100%" stop-color="#FF1744" stop-opacity="0.6" />
    </linearGradient>
    <filter id="glow" x="-20%" y="-20%" width="140%" height="140%">
      <feGaussianBlur stdDeviation="4" result="blur" />
      <feComposite in="SourceGraphic" in2="blur" operator="over" />
    </filter>
  </defs>
  
  <!-- Background Circle -->
  <circle cx="100" cy="100" r="98" fill="url(#gradientBg3)" stroke="#FF5252" stroke-width="2" />
  
  <!-- Tech Pattern -->
  <path d="M40,40 L60,60 M140,40 L120,60 M40,160 L60,140 M160,160 L140,140" 
        stroke="#FF5252" stroke-width="1" opacity="0.4" />
  
  <!-- Tech Circuit Pattern -->
  <path d="M35,100 L55,100 M65,75 L85,75 M115,75 L135,75 M145,100 L165,100 M65,125 L85,125 M115,125 L135,125" 
        stroke="#FF5252" stroke-width="1.5" stroke-linecap="round" fill="none" opacity="0.7" />
  <path d="M55,100 C55,85 65,75 85,75 L115,75 C135,75 145,85 145,100 C145,115 135,125 115,125 L85,125 C65,125 55,115 55,100" 
        stroke="#FF5252" stroke-width="1.5" fill="none" opacity="0.5" />
  
  <!-- Glow effect -->
  <circle cx="100" cy="100" r="85" fill="url(#glowEffect3)" opacity="0.15" />
  
  <!-- Avatar Silhouette -->
  <path d="M100,55 C85,55 75,70 75,85 C75,100 85,110 100,110 C115,110 125,100 125,85 C125,70 115,55 100,55 Z" 
        fill="url(#gradientFace3)" />
  <path d="M65,145 C65,120 80,115 100,115 C120,115 135,120 135,145" 
        stroke="#FF5252" stroke-width="2" stroke-linecap="round" fill="none" />
  
  <!-- Digital Embellishments -->
  <circle cx="88" cy="85" r="2" fill="#FF5252" opacity="0.9" />
  <circle cx="112" cy="85" r="2" fill="#FF5252" opacity="0.9" />
  
  <!-- Tech Features -->
  <path d="M90,98 C95,103 105,103 110,98" stroke="#FF5252" stroke-width="1.5" fill="none" />
  
  <!-- Tech Dots -->
  <circle cx="75" cy="165" r="3" fill="#FF5252" />
  <circle cx="100" cy="170" r="3" fill="#FF5252" />
  <circle cx="125" cy="165" r="3" fill="#FF5252" />
  
  <!-- Tech Lines -->
  <path d="M75,165 L100,170 L125,165" stroke="#FF5252" stroke-width="1.5" fill="none" />
  
  <!-- Digital Connections -->
  <path d="M50,40 L50,50 M60,30 L60,40 M70,35 L70,45 M150,40 L150,50 M140,30 L140,40 M130,35 L130,45"
        stroke="#FF5252" stroke-width="1" stroke-dasharray="2,2" opacity="0.5" />
  
  <!-- Digital Sparkle Effects -->
  <circle cx="75" cy="40" r="1" fill="#FFFFFF" opacity="0.8" filter="url(#glow)" />
  <circle cx="125" cy="40" r="1" fill="#FFFFFF" opacity="0.8" filter="url(#glow)" />
  <circle cx="50" cy="100" r="1" fill="#FFFFFF" opacity="0.8" filter="url(#glow)" />
  <circle cx="150" cy="100" r="1" fill="#FFFFFF" opacity="0.8" filter="url(#glow)" />
  <circle cx="100" cy="175" r="1" fill="#FFFFFF" opacity="0.8" filter="url(#glow)" />
</svg>